<svg xmlns="http://www.w3.org/2000/svg" viewBox="0 0 40 40"><defs><style>.cls-1{fill:none;}</style></defs><g id="export"><g id="thread"><rect class="cls-1" width="40" height="40"/><path d="M31.18,21.17l3.13-1.39a4.54,4.54,0,0,0,2.32-5.92l-.48-1.12a4.54,4.54,0,0,0-5.9-2.39l-7.25,3V7H18V3H10V7H5V33h5v4h8V33h5V15.53l8-3.34a2.54,2.54,0,0,1,3.29,1.34l.48,1.12a2.53,2.53,0,0,1-1.3,3.3l-3.13,1.39a4.53,4.53,0,0,0,.41,8.43,4.49,4.49,0,0,0,3.45-.25l1.15-.57-.89-1.79-1.15.57a2.52,2.52,0,1,1-2.15-4.56ZM20.55,14.38,10,18.91,7,17.17V16.09l14-6V14.2Zm.45,2v8.9l-8.84-5.11ZM12,5h4V7H12Zm6.46,4L7,13.91V9ZM7,26.11,15.46,31H7ZM16,35H12V33h4Zm3.46-4L7,23.8V19.48l14,8.09V31Z"/></g></g></svg>
