<svg width="127" height="346" viewBox="0 0 127 346" fill="none" xmlns="http://www.w3.org/2000/svg">
<path d="M75.0539 4.08639C74.5206 2.79039 73.8833 1.76109 73.1797 1.05925C72.476 0.357405 71.7202 -0.00276248 70.957 1.59533e-05C70.1937 0.00279439 69.4384 0.36846 68.7356 1.07542C68.0329 1.78239 67.3969 2.81632 66.8653 4.1162L1.78282 162.605C0.639748 165.388 0 169.121 0 173.007C0 176.894 0.639748 180.627 1.78282 183.41L66.8653 341.899C67.3977 343.197 68.0344 344.228 68.7376 344.933C69.4408 345.637 70.1963 346 70.9596 346C71.7229 346 72.4784 345.637 73.1816 344.933C73.8849 344.228 74.5215 343.197 75.0539 341.899C76.1494 339.237 76.7627 335.664 76.7627 331.943C76.7627 328.222 76.1494 324.649 75.0539 321.987L13.8523 173.007L75.0539 23.9682C76.1456 21.3078 76.7566 17.7409 76.7566 14.0273C76.7566 10.3137 76.1456 6.7468 75.0539 4.08639ZM125.291 4.08639C124.758 2.79039 124.121 1.76109 123.417 1.05925C122.713 0.357405 121.958 -0.00276248 121.194 1.59533e-05C120.431 0.00279439 119.676 0.36846 118.973 1.07542C118.27 1.78239 117.634 2.81632 117.103 4.1162L52.0201 162.605C50.8771 165.388 50.2373 169.121 50.2373 173.007C50.2373 176.894 50.8771 180.627 52.0201 183.41L117.103 341.899C117.635 343.197 118.272 344.228 118.975 344.933C119.678 345.637 120.434 346 121.197 346C121.96 346 122.716 345.637 123.419 344.933C124.122 344.228 124.759 343.197 125.291 341.899C126.387 339.237 127 335.664 127 331.943C127 328.222 126.387 324.649 125.291 321.987L64.0897 173.007L125.291 23.9682C126.383 21.3078 126.994 17.7409 126.994 14.0273C126.994 10.3137 126.383 6.7468 125.291 4.08639Z" fill="#FFFAFA" fill-opacity="0.69"/>
</svg>
